#!OML:ASF I:\golf\golf\golf 2\Subject 1\2002-09-07\Subject1.ASF
:FULLY-SPECIFIED
:DEGREES
418
root -4.74832 17.9722 -2.33142 -168.178 -7.4692 -172.853
lowerback -12.0551 16.603 14.3883
upperback -15.7654 18.2373 -0.347404
thorax -6.4069 6.57047 -5.73167
lowerneck -6.96366 -22.2527 -4.8176
upperneck 8.3428 -31.2864 7.70728
head 5.54059 -15.2958 0.42061
rclavicle 1.26228e-014 3.18055e-015
rhumerus 106.323 24.1842 -52.8128
rradius 81.15
rwrist 9.68926
rhand -47.5605 38.6289
rfingers 7.12502
rthumb -20.246 9.66408
lclavicle 1.26228e-014 3.18055e-015
lhumerus 69.9872 24.1195 60.153
lradius 87.7881
lwrist 6.23371
lhand -33.5203 17.7768
lfingers 7.12502
lthumb -186.716 -492.35
rfemur 21.8633 -8.34345 25.8167
rtibia 4.53687
rfoot 39.8508 -18.5115
rtoes 13.3782
lfemur -25.6362 -20.7145 -11.2642
ltibia 30.0015
lfoot 30.2829 -46.154
ltoes 53.6644
419
root -4.74543 17.9725 -2.33487 -168.211 -7.50605 -172.928
lowerback -12.0541 16.5736 14.28
upperback -15.7314 18.2187 -0.349655
thorax -6.39741 6.57991 -5.68862
lowerneck -6.88341 -22.1799 -4.8153
upperneck 8.43399 -31.2033 7.6931
head 5.55042 -15.2584 0.429612
rclavicle -7.10655e-014 -7.11649e-014
rhumerus 105.975 24.2312 -53.0905
rradius 80.8688
rwrist 9.30652
rhand -47.307 38.6905
rfingers 7.12502
rthumb -20.0024 9.70006
lclavicle -7.10655e-014 -7.11649e-014
lhumerus 69.7642 23.95 59.4876
lradius 87.111
lwrist 6.03938
lhand -33.6582 18.0935
lfingers 7.12502
lthumb -186.85 -492.037
rfemur 21.8609 -8.3952 25.7353
rtibia 4.62099
rfoot 39.7661 -18.466
rtoes 13.4943
lfemur -25.5452 -20.7077 -11.3538
ltibia 29.9375
lfoot 30.6964 -45.9116
ltoes 53.9185
420
root -4.74114 17.9695 -2.33829 -168.299 -7.55781 -173.058
lowerback -12.0481 16.5019 14.1151
upperback -15.6576 18.159 -0.338282
thorax -6.37006 6.58296 -5.61351
lowerneck -7.05903 -22.123 -4.8092
upperneck 8.74653 -31.1104 7.47166
head 5.63445 -15.2073 0.345663
rclavicle 2.40529e-014 6.75868e-015
rhumerus 105.443 23.7834 -53.4293
rradius 80.8021
rwrist 8.467
rhand -47.2542 38.3575
rfingers 7.12502
rthumb -19.9516 9.36175
lclavicle 2.40529e-014 6.75868e-015
lhumerus 69.5611 23.8476 58.8255
lradius 86.4497
lwrist 6.09025
lhand -33.5035 18.0348
lfingers 7.12502
lthumb -186.7 -492.091
rfemur 22.0071 -8.47715 25.592
rtibia 4.60782
rfoot 39.5859 -18.8658
rtoes 14.6691
lfemur -25.378 -20.6886 -11.5366
ltibia 29.873
lfoot 31.0148 -45.8053
ltoes 54.1046
421
root -4.73809 17.9708 -2.34075 -168.344 -7.62822 -173.049
lowerback -12.0557 16.4574 14.1087
upperback -15.606 18.1092 -0.313791
thorax -6.32486 6.57126 -5.58952
lowerneck -7.27142 -22.0856 -4.88682
upperneck 8.96798 -31.0418 7.37308
head 5.7288 -15.1629 0.294746
rclavicle -1.04461e-013 -6.30147e-014
rhumerus 105.199 23.877 -53.6233
rradius 80.4583
rwrist 8.0861
rhand -47.434 38.2875
rfingers 7.12502
rthumb -20.1245 9.30978
lclavicle -1.04461e-013 -6.30147e-014
lhumerus 69.391 23.7698 58.2466
lradius 85.8606
lwrist 6.49093
lhand -33.3134 17.7415
lfingers 7.12502
lthumb -186.517 -492.379
rfemur 22.0652 -8.54749 25.6073
rtibia 4.61754
rfoot 39.3121 -19.5473
rtoes 16.1967
lfemur -25.3097 -20.6627 -11.5257
ltibia 29.8083
lfoot 31.2355 -45.7598
ltoes 54.2242
422
root -4.73674 17.9743 -2.34063 -168.309 -7.67222 -172.997
lowerback -12.0757 16.4532 14.1748
upperback -15.6076 18.0925 -0.321047
thorax -6.30049 6.55727 -5.62405
lowerneck -7.25235 -22.0418 -4.99609
upperneck 8.9717 -30.9884 7.47063
head 5.75597 -15.1338 0.332538
rclavicle 1.0138e-014 -1.03368e-014
rhumerus 104.757 23.8925 -53.9097
rradius 80.2455
rwrist 7.74631
rhand -47.3442 38.7663
rfingers 7.12502
rthumb -20.0382 9.77957
lclavicle 1.0138e-014 -1.03368e-014
lhumerus 69.2257 23.5997 57.68
lradius 85.2487
lwrist 6.93812
lhand -33.1286 17.7733
lfingers 7.12502
lthumb -186.338 -492.341
rfemur 21.9824 -8.57658 25.6749
rtibia 4.68269
rfoot 39.1625 -19.7178
rtoes 16.5608
lfemur -25.3516 -20.629 -11.4336
ltibia 29.7487
lfoot 31.3418 -45.7432
ltoes 54.2326
423
root -4.73404 17.9768 -2.33981 -168.247 -7.63851 -173.043
lowerback -12.1145 16.4431 14.1253
upperback -15.5873 18.0785 -0.347685
thorax -6.26226 6.55982 -5.62082
lowerneck -7.17405 -21.9836 -5.07578
upperneck 8.89478 -30.9086 7.57481
head 5.74354 -15.0961 0.386163
rclavicle 8.09054e-014 4.11484e-014
rhumerus 104.306 24.0311 -54.3401
rradius 79.8837
rwrist 7.7819
rhand -48.0465 37.8697
rfingers 7.12502
rthumb -20.7131 8.95508
lclavicle 8.09054e-014 4.11484e-014
lhumerus 69.1213 23.4119 57.1542
lradius 84.5512
lwrist 7.26715
lhand -32.8771 17.8397
lfingers 7.12502
lthumb -186.096 -492.268
rfemur 21.9115 -8.54705 25.6294
rtibia 4.69136
rfoot 39.2641 -19.4506
rtoes 15.9823
lfemur -25.3885 -20.5667 -11.4648
ltibia 29.7052
lfoot 31.3576 -45.7567
ltoes 54.27
424
root -4.73033 17.9786 -2.3378 -168.185 -7.58559 -173.148
lowerback -12.1669 16.3747 14.0147
upperback -15.5352 17.9945 -0.360252
thorax -6.21197 6.53832 -5.58545
lowerneck -7.15102 -21.8731 -5.11287
upperneck 8.81491 -30.7684 7.72165
head 5.73621 -15.0246 0.447707
rclavicle -4.22417e-014 1.45113e-014
rhumerus 104.122 24.5315 -54.8216
rradius 79.3227
rwrist 7.99659
rhand -47.9759 37.6025
rfingers 7.12502
rthumb -20.6453 8.68045
lclavicle -4.22417e-014 1.45113e-014
lhumerus 68.9417 23.286 56.506
lradius 83.8247
lwrist 7.38595
lhand -32.8249 17.9218
lfingers 7.12502
lthumb -186.045 -492.184
rfemur 21.8589 -8.50891 25.5148
rtibia 4.68492
rfoot 39.3135 -19.5123
rtoes 15.7779
lfemur -25.4135 -20.5108 -11.569
ltibia 29.6615
lfoot 31.3624 -45.7912
ltoes 54.2972
425
root -4.72714 17.9789 -2.33413 -168.135 -7.5875 -173.154
lowerback -12.1925 16.3136 14.0172
upperback -15.5163 17.9101 -0.36345
thorax -6.18949 6.49883 -5.59964
lowerneck -7.31453 -21.8274 -4.5953
upperneck 8.82732 -30.6426 7.22493
head 5.60379 -14.9749 0.293478
rclavicle 1.04263e-013 8.50798e-014
rhumerus 103.819 24.8171 -55.1296
rradius 78.8984
rwrist 7.82162
rhand -47.7104 37.3494
rfingers 7.12502
rthumb -20.3901 8.39989
lclavicle 1.04263e-013 8.50798e-014
lhumerus 68.7157 23.1133 55.8121
lradius 83.0913
lwrist 7.49281
lhand -32.4951 17.715
lfingers 7.12502
lthumb -185.727 -492.382
rfemur 21.7941 -8.50547 25.5122
rtibia 4.69448
rfoot 39.2802 -19.719
rtoes 16.0549
lfemur -25.4599 -20.4681 -11.5495
ltibia 29.6121
lfoot 31.4656 -45.7963
ltoes 54.3042
426
root -4.72356 17.9797 -2.32943 -168.104 -7.56597 -173.092
lowerback -12.087 16.329 14.0771
upperback -15.4966 17.9581 -0.369682
thorax -6.19596 6.52245 -5.64471
lowerneck -7.74295 -21.8856 -4.13366
upperneck 8.98341 -30.6098 6.53483
head 5.53959 -14.9621 0.0466463
rclavicle 2.55438e-014 3.61788e-014
rhumerus 103.318 24.1454 -55.2605
rradius 78.6356
rwrist 6.74925
rhand -47.5843 36.9481
rfingers 7.12502
rthumb -20.2689 7.98572
lclavicle 2.55438e-014 3.61788e-014
lhumerus 68.7246 22.7799 55.4208
lradius 82.2646
lwrist 7.72442
lhand -32.2094 17.2863
lfingers 7.12502
lthumb -185.451 -492.804
rfemur 21.747 -8.47019 25.579
rtibia 4.67017
rfoot 39.442 -19.4284
rtoes 15.4537
lfemur -25.5044 -20.4295 -11.4444
ltibia 29.5719
lfoot 31.6399 -45.692
ltoes 54.3828
427
root -4.71887 17.9809 -2.32305 -168.106 -7.50667 -173.085
lowerback -11.9242 16.3025 14.0772
upperback -15.443 17.9757 -0.342865
thorax -6.22386 6.54154 -5.64751
lowerneck -7.89603 -21.8399 -4.62528
upperneck 9.08076 -30.5496 6.86573
head 5.71427 -14.9092 0.137651
rclavicle -3.54831e-014 -2.46493e-014
rhumerus 102.924 24.1349 -55.5254
rradius 78.2001
rwrist 6.34791
rhand -47.5612 36.9201
rfingers 7.12502
rthumb -20.2467 7.95538
lclavicle -3.54831e-014 -2.46493e-014
lhumerus 68.7649 22.4347 55.0042
lradius 81.3757
lwrist 8.01453
lhand -32.2504 16.999
lfingers 7.12502
lthumb -185.49 -493.092
rfemur 21.7575 -8.41536 25.5838
rtibia 4.6335
rfoot 39.6039 -19.0827
rtoes 14.7527
lfemur -25.4998 -20.4201 -11.4091
ltibia 29.5329
lfoot 31.7345 -45.5777
ltoes 54.3605
428
root -4.71465 17.9821 -2.3166 -168.079 -7.46161 -173.124
lowerback -11.8653 16.2128 14.0342
upperback -15.4054 17.8814 -0.316395
thorax -6.24643 6.503 -5.63242
lowerneck -7.79345 -21.7382 -4.92625
upperneck 9.11044 -30.4462 7.15777
head 5.79288 -14.8516 0.247466
rclavicle -1.85864e-014 2.5842e-014
rhumerus 102.487 24.3208 -55.9809
rradius 77.7431
rwrist 6.28998
rhand -47.465 37.0282
rfingers 7.12502
rthumb -20.1543 8.05367
lclavicle -1.85864e-014 2.5842e-014
lhumerus 68.6137 22.136 54.2722
lradius 80.4759
lwrist 8.22838
lhand -32.3479 16.7397
lfingers 7.12502
lthumb -185.585 -493.354
rfemur 21.7054 -8.38056 25.5484
rtibia 4.6959
rfoot 39.6539 -18.836
rtoes 14.3324
lfemur -25.5099 -20.4406 -11.4193
ltibia 29.4778
lfoot 31.6868 -45.5608
ltoes 54.296
429
root -4.71272 17.9855 -2.31048 -167.998 -7.38183 -173.241
lowerback -11.8225 16.1512 13.9489
upperback -15.4005 17.8221 -0.35647
thorax -6.28039 6.47957 -5.65817
lowerneck -7.79462 -21.6893 -4.74834
upperneck 9.23049 -30.379 6.95874
head 5.77083 -14.8256 0.187961
rclavicle -1.15593e-013 -5.725e-014
rhumerus 102.088 23.9918 -56.1421
rradius 77.2563
rwrist 5.85956
rhand -47.3731 36.7978
rfingers 7.12502
rthumb -20.0659 7.814
lclavicle -1.15593e-013 -5.725e-014
lhumerus 68.4147 21.8088 53.4862
lradius 79.568
lwrist 8.42776
lhand -32.4551 16.7337
lfingers 7.12502
lthumb -185.688 -493.363
rfemur 21.5432 -8.31664 25.415
rtibia 4.87195
rfoot 39.7447 -18.2437
rtoes 13.0399
lfemur -25.5542 -20.4754 -11.5191
ltibia 29.4169
lfoot 31.3771 -45.6672
ltoes 54.1542
